# xmcd CD database file
# Copyright (C) 1997 Ti Kan
#
# Track frame offsets:
#  150
#  28030
#  56552
#  66892
#  77875
#  87435
#  116222
#  128690
#  145040
#  160637
#
# Disc length: 2329 seconds
#
# Revision: 1
# Processed by: cddbd v1.4b41PL1 Copyright (c) Steve Scherf et al.
# Submitted via: CDWizzard Release:4.23
#
DISCID=8309170a
DTITLE=Poco - On the Country Side
DYEAR=1900
DGENRE=
TTITLE0=Drivin' Wheel
TTITLE1=Magnolia
TTITLE2=Rocky Mountain Breakdown
TTITLE3=Fools Gold
TTITLE4=Hoe Down
TTITLE5=Ride the Country
TTITLE6=Honky Tonk Downstairs
TTITLE7=Railroad Days
TTITLE8=Pickin' Up the Piecesq
TTITLE9=Calico Lady
EXTD=
EXTT0=
EXTT1=
EXTT2=
EXTT3=
EXTT4=
EXTT5=
EXTT6=
EXTT7=
EXTT8=
EXTT9=
PLAYORDER=
